<svg xmlns="http://www.w3.org/2000/svg" width="300" height="45" viewBox="0 0 300 45" data-ember-extension="1">
  <g id="Group_132" data-name="Group 132" transform="translate(-810 -200)">
    <g id="Group_11" data-name="Group 11" transform="translate(675 -531.296)">
      <g id="Group_7" data-name="Group 7" transform="translate(135 731.296)">
        <path id="Path_1" data-name="Path 1" d="M185.429,753.8c0,4.264-3.84,7.538-5.819,11-2.056,3.54-3.142,8.413-6.788,10.469-3.491,1.98-8.263.495-12.607.495s-9.116,1.447-12.607-.495c-3.608-2.018-4.655-6.928-6.788-10.469-2.017-3.426-5.819-6.738-5.819-11s3.84-7.538,5.819-11c2.056-3.541,3.142-8.413,6.788-10.469,3.491-1.98,8.263-.495,12.607-.495s9.116-1.447,12.607.495c3.608,2.018,4.655,6.928,6.788,10.469C181.627,746.3,185.429,749.532,185.429,753.8Z" transform="translate(-135 -731.296)" fill="#3972dc"/>
        <g id="Group_3" data-name="Group 3" transform="translate(17.068 10.979)">
          <g id="Group_1" data-name="Group 1" transform="translate(1.203)" opacity="0.1">
            <path id="Path_2" data-name="Path 2" d="M182.1,760.7h0V778a5.753,5.753,0,0,0,5.741,5.741h0v-17.3A5.7,5.7,0,0,0,182.1,760.7Z" transform="translate(-182.1 -760.7)" fill="#142b66"/>
          </g>
          <g id="Group_2" data-name="Group 2">
            <path id="Path_3" data-name="Path 3" d="M179,760.7h0V778a5.753,5.753,0,0,0,5.741,5.741h0v-17.3A5.728,5.728,0,0,0,179,760.7Z" transform="translate(-179 -760.7)" fill="#fff"/>
          </g>
        </g>
        <g id="Group_6" data-name="Group 6" transform="translate(27.581 28.094)">
          <g id="Group_4" data-name="Group 4" transform="translate(1.203)" opacity="0.1">
            <circle id="Ellipse_1" data-name="Ellipse 1" cx="2.909" cy="2.909" r="2.909"/>
          </g>
          <g id="Group_5" data-name="Group 5">
            <circle id="Ellipse_2" data-name="Ellipse 2" cx="2.909" cy="2.909" r="2.909" fill="#fff"/>
          </g>
        </g>
      </g>
      <g id="Group_8" data-name="Group 8" transform="translate(202.79 738.395)" style="isolation: isolate">
        <path id="Path_4" data-name="Path 4" d="M319.876,775.7c0,2.4.078,4.112.815,4.926.582.659,1.319,1.047,5.12,1.047,5.237,0,6.013-.233,8.185-5.159a1.33,1.33,0,0,1,1.474.272,49.3,49.3,0,0,1-1.978,6.944c-1.978-.078-6.051-.155-11.366-.155H317.2c-2.405,0-4.771.039-6.75.155-.388-.194-.5-1.164-.078-1.4l1.435-.233c2.211-.388,2.638-.427,2.638-5.392V758.86c0-4.965-.427-5.12-2.638-5.47l-1.319-.194c-.349-.233-.349-1.2.078-1.4,2.366.078,4.5.155,6.672.155,2.095,0,4.228-.039,6.284-.155a.953.953,0,0,1,.078,1.4l-1.047.194c-2.211.388-2.638.465-2.638,5.47V775.7Z" transform="translate(-310.101 -751.8)" fill="#142b66"/>
        <path id="Path_5" data-name="Path 5" d="M388.392,791.585c-.892,0-1.009.039-1.009.621,0,4.306,2.948,7.758,7.138,7.758a4.857,4.857,0,0,0,4.539-2.405c.465-.155,1.009.349,1.047.776a8.506,8.506,0,0,1-7.991,5.276c-5.47,0-9.116-4.112-9.116-9.581,0-5.392,3.646-10.629,9.969-10.629,3.491,0,7.1,2.289,7.1,6.478a2.035,2.035,0,0,1-.233,1.086c-.272.427-1.358.621-3.259.621Zm4.345-1.94a4.97,4.97,0,0,0,2.327-.349,1.255,1.255,0,0,0,.465-1.009,2.94,2.94,0,0,0-3.142-3.1,4.879,4.879,0,0,0-4.655,4.112c0,.194.078.349.659.349Z" transform="translate(-354.722 -771.142)" fill="#142b66"/>
      </g>
      <g id="Group_9" data-name="Group 9" transform="translate(251.098 747.014)" style="isolation: isolate">
        <path id="Path_6" data-name="Path 6" d="M443.616,780.412c-.853,0-.892.078-.892,1.629v7.37c0,3.026.427,5.7,3.452,5.7a3.874,3.874,0,0,0,2.289-.853c.427.039.7.427.621.97a7.358,7.358,0,0,1-6.013,2.638c-4.5,0-5.314-2.638-5.314-5.974v-9.737c0-1.668-.078-1.707-.853-1.707h-1.668a.789.789,0,0,1-.155-1.28,14.447,14.447,0,0,0,3.724-2.017,8.666,8.666,0,0,0,2.6-2.987,1,1,0,0,1,1.319.233v2.871c0,.776,0,.892.892.892l6.207.466c.272.155.815.427.815.892-.039.582-1.241.659-1.629.892Z" transform="translate(-434.818 -774.018)" fill="#142b66"/>
      </g>
      <g id="Group_10" data-name="Group 10" transform="translate(264.048 736.762)" style="isolation: isolate">
        <path id="Path_7" data-name="Path 7" d="M480.7,780.351c-.853,0-.892.078-.892,1.629v7.37c0,3.026.427,5.7,3.452,5.7a3.874,3.874,0,0,0,2.289-.853c.427.039.7.427.621.97a7.358,7.358,0,0,1-6.013,2.638c-4.5,0-5.314-2.638-5.314-5.974V782.1c0-1.668-.078-1.707-.853-1.707h-4.112c-.465-.233-1.2-1.319-.776-1.629-.543-.349,4.577-.039,6.827-1.707a8.668,8.668,0,0,0,2.6-2.987,1,1,0,0,1,1.319.233v2.87c0,.776,0,.892.892.892h4.694a1.119,1.119,0,0,1,.388,1.009,1.45,1.45,0,0,1-.621,1.241h-4.5Z" transform="translate(-468.97 -763.705)" fill="#142b66"/>
        <path id="Path_8" data-name="Path 8" d="M526.392,791.585c-.892,0-1.009.039-1.009.621,0,4.306,2.948,7.758,7.138,7.758a4.857,4.857,0,0,0,4.539-2.405c.465-.155,1.009.349,1.047.776a8.506,8.506,0,0,1-7.991,5.276c-5.47,0-9.116-4.112-9.116-9.581,0-5.392,3.646-10.629,9.969-10.629,3.491,0,7.1,2.289,7.1,6.478a2.035,2.035,0,0,1-.233,1.086c-.272.427-1.358.621-3.258.621Zm4.345-1.94a4.97,4.97,0,0,0,2.327-.349,1.255,1.255,0,0,0,.466-1.009,2.94,2.94,0,0,0-3.142-3.1,4.879,4.879,0,0,0-4.655,4.112c0,.194.078.349.659.349Z" transform="translate(-500.817 -769.509)" fill="#142b66"/>
        <path id="Path_9" data-name="Path 9" d="M577.783,789.087c0-2.172,0-2.715-1.164-3.452l-.582-.349a1.2,1.2,0,0,1,.039-1.086,31.748,31.748,0,0,0,5.974-2.6.679.679,0,0,1,.659.427c-.039.892-.078,1.707-.078,2.172,0,.349.194.582.466.582,1.474-1.047,3.026-2.483,4.655-2.483a2.363,2.363,0,0,1,2.6,2.327,2.628,2.628,0,0,1-2.638,2.793,2.477,2.477,0,0,1-1.28-.388,4.087,4.087,0,0,0-2.289-.892c-1.086,0-1.358,1.086-1.358,3.452v6.517c0,3.53.194,4.073,1.862,4.267l1.862.194a1.053,1.053,0,0,1-.078,1.4c-2.832-.078-4.461-.155-6.207-.155-1.552,0-3.142.039-4.927.155-.388-.194-.427-1.047-.078-1.4l.853-.155c1.59-.271,1.784-.776,1.784-4.306v-7.021Z" transform="translate(-533.859 -768.407)" fill="#142b66"/>
        <path id="Path_10" data-name="Path 10" d="M623.121,802.12a13.518,13.518,0,0,1-.659-5.392.927.927,0,0,1,1.319-.078c.853,2.677,2.6,5.237,5.12,5.237a2.535,2.535,0,0,0,2.638-2.677c0-1.784-1.552-2.909-3.22-3.724-2.444-1.2-5-2.987-5-6.051-.039-3.724,3.142-5.935,7.06-5.935a10,10,0,0,1,4.383.97,11.447,11.447,0,0,1,.7,4.655.916.916,0,0,1-1.28.233c-.7-2.211-2.211-4.034-4.073-4.034a2.513,2.513,0,0,0-2.638,2.483c0,1.4,1.358,2.405,3.181,3.258,2.56,1.241,5.237,2.871,5.237,6.672,0,4.151-3.646,5.974-7.37,5.974A9.277,9.277,0,0,1,623.121,802.12Z" transform="translate(-562.905 -769.57)" fill="#142b66"/>
        <path id="Path_11" data-name="Path 11" d="M670.86,789.087c0-2.172,0-2.715-1.164-3.452l-.582-.349a1.2,1.2,0,0,1,.039-1.086,29.2,29.2,0,0,0,6.168-2.6.67.67,0,0,1,.621.388c-.078.892-.078,1.823-.078,2.211,0,.349.155.427.427.466,2.328-1.241,3.53-2.405,6.75-2.405a5.407,5.407,0,0,1,4.267,2.017c.272.427.582.737.776.737a3.16,3.16,0,0,0,1.047-.466c2.211-1.4,3.84-2.25,6.051-2.25,3.957,0,5.78,2.677,5.78,6.4v7.409c0,3.53.194,4.073,1.784,4.306l1.047.155c.427.349.194,1.2,0,1.4-2.017-.078-3.646-.155-5.392-.155-1.552,0-3.181.039-4.888.155-.388-.194-.427-1.047-.078-1.4l.776-.155c1.591-.271,1.784-.776,1.784-4.306v-6.517c0-2.521-.853-4.461-3.84-4.461a4.4,4.4,0,0,0-3.181,1.435,3.5,3.5,0,0,0-.582,2.483v7.06c0,3.53.194,4.112,1.784,4.345l.7.078a1.054,1.054,0,0,1-.078,1.4c-1.668-.078-3.22-.155-4.965-.155-1.552,0-3.181.039-4.733.155-.388-.194-.427-1.047-.078-1.4l.621-.078c1.59-.233,1.784-.815,1.784-4.345v-6.517c0-2.521-.853-4.461-3.608-4.461a4.393,4.393,0,0,0-3.375,1.474c-.582.776-.621,1.2-.621,3.065v6.439c0,3.53.194,4.112,1.784,4.345l.7.078a1.053,1.053,0,0,1-.078,1.4c-1.668-.078-3.258-.155-5-.155-1.552,0-3.142.039-4.927.155-.388-.194-.427-1.047-.078-1.4l.853-.155c1.591-.272,1.784-.776,1.784-4.306v-6.982Z" transform="translate(-590.783 -768.407)" fill="#142b66"/>
        <path id="Path_12" data-name="Path 12" d="M777.425,780.486c0,3.429.194,3.919,1.784,4.183l.853.151a1,1,0,0,1-.078,1.357c-1.746-.075-3.375-.151-5.12-.151-1.552,0-3.181.038-4.965.151-.388-.188-.427-1.017-.078-1.357l.853-.151c1.59-.264,1.784-.754,1.784-4.183v-6.82c0-2.11,0-2.638-1.164-3.354l-.582-.339a1.133,1.133,0,0,1,.039-1.055,30.494,30.494,0,0,0,6.168-2.525.91.91,0,0,1,.659.377c-.078,1.545-.155,3.768-.155,5.69v8.026Zm-5.392-20.5a2.872,2.872,0,1,1,2.871,2.788A2.732,2.732,0,0,1,772.033,759.988Z" transform="translate(-652.971 -752.618)" fill="#142b66"/>
        <path id="Path_13" data-name="Path 13" d="M813.316,780.412c-.853,0-.892.078-.892,1.629v7.37c0,3.026.427,5.7,3.452,5.7a3.874,3.874,0,0,0,2.289-.853c.427.039.7.427.621.97a7.358,7.358,0,0,1-6.013,2.638c-4.5,0-5.314-2.638-5.314-5.974v-9.737c0-1.668-.078-1.707-.853-1.707h-1.668a.789.789,0,0,1-.155-1.28,14.447,14.447,0,0,0,3.724-2.017,8.667,8.667,0,0,0,2.6-2.987,1,1,0,0,1,1.319.233v2.871c0,.776,0,.892.892.892h4.694a1.119,1.119,0,0,1,.388,1.009,1.45,1.45,0,0,1-.621,1.241Z" transform="translate(-674.354 -763.766)" fill="#142b66"/>
        <path id="Path_14" data-name="Path 14" d="M856.458,761.2c0,.567.078.794.427.794a10.318,10.318,0,0,1,6.051-2.232c4.073,0,6.051,2.572,6.051,6.544v6.922c0,3.442.194,4.01,1.784,4.2l1.086.151a.857.857,0,0,1-.078,1.362c-1.978-.076-3.608-.151-5.353-.151-1.552,0-3.181.038-4.81.151-.388-.189-.427-1.021-.078-1.362l.7-.076c1.59-.227,1.784-.794,1.784-4.237v-6.582c0-2.232-1.009-4.123-3.8-4.123a4.452,4.452,0,0,0-3.22,1.362c-.5.567-.582,1.248-.582,3.064v6.242c0,3.442.194,4.01,1.784,4.237l.7.076a1.009,1.009,0,0,1-.078,1.362c-1.668-.076-3.258-.151-5-.151-1.513,0-3.142.038-5.12.151-.388-.189-.427-1.021-.078-1.362l1.047-.151c1.59-.227,1.784-.757,1.784-4.2V753.147c0-3.14-.078-3.4-1.086-4.048l-.659-.416c-.272-.189-.349-.946,0-1.059,1.862-.53,4.267-1.475,6.207-2.232a.651.651,0,0,1,.659.378c-.078,1.854-.155,4.766-.155,6.771V761.2Z" transform="translate(-701.204 -745.387)" fill="#142b66"/>
      </g>
    </g>
  </g>
</svg>